<svg width="116" height="36" viewBox="0 0 116 36" fill="none" xmlns="http://www.w3.org/2000/svg">
<path id="Nose" d="M29.1998 -0.000888824H21.8532V21.9537H21.5463L6.47816 -0.000888824H0.000887752V34.9082H7.38157V12.9366H7.63725L22.8248 34.9082H29.1998V-0.000888824ZM46.9909 35.4196C54.9341 35.4196 59.8773 29.9821 59.8773 21.9196C59.8773 13.8059 54.9341 8.38548 46.9909 8.38548C39.0478 8.38548 34.1046 13.8059 34.1046 21.9196C34.1046 29.9821 39.0478 35.4196 46.9909 35.4196ZM47.025 29.7946C43.3603 29.7946 41.4853 26.4366 41.4853 21.8684C41.4853 17.3002 43.3603 13.9252 47.025 13.9252C50.6216 13.9252 52.4966 17.3002 52.4966 21.8684C52.4966 26.4366 50.6216 29.7946 47.025 29.7946ZM86.383 16.1923C85.7353 11.3684 81.8489 8.38548 75.2353 8.38548C68.5364 8.38548 64.1216 11.4877 64.1387 16.5332C64.1216 20.4537 66.5932 22.9934 71.7069 24.0162L76.2409 24.9196C78.525 25.3798 79.5648 26.215 79.5989 27.5275C79.5648 29.0787 77.8773 30.1866 75.3375 30.1866C72.7466 30.1866 71.025 29.0787 70.5819 26.948L63.4398 27.323C64.1216 32.3343 68.383 35.4196 75.3205 35.4196C82.1046 35.4196 86.9625 31.9593 86.9796 26.7946C86.9625 23.0105 84.4909 20.7434 79.4114 19.7037L74.6728 18.7491C72.2353 18.2207 71.3319 17.3855 71.3489 16.1241C71.3319 14.5559 73.1046 13.5332 75.3546 13.5332C77.8773 13.5332 79.3773 14.9139 79.7353 16.6014L86.383 16.1923ZM103.484 35.4196C109.961 35.4196 114.325 32.2662 115.347 27.4082L108.632 26.965C107.899 28.9593 106.024 29.9991 103.603 29.9991C99.9725 29.9991 97.6713 27.5957 97.6713 23.6923V23.6752H115.501V21.6809C115.501 12.7832 110.115 8.38548 103.194 8.38548C95.4895 8.38548 90.4952 13.8571 90.4952 21.9366C90.4952 30.2377 95.4213 35.4196 103.484 35.4196ZM97.6713 19.1752C97.8248 16.1923 100.092 13.8059 103.313 13.8059C106.467 13.8059 108.649 16.0559 108.666 19.1752H97.6713Z" fill="#1A1A19"/>
</svg>
